# Rhino

mtllib CIRCLE_INSIDE.mtl
usemtl diffuse_0
v -19.151329040527344 0 12.752500534057617
v -19.151329040527344 0 6.3702521324157715
v -19.151329040527344 0 -0.0119963139295578
v -19.151329040527344 0 -6.3942451477050781
v -19.151329040527344 0 -12.776493072509766
v -12.772451400756836 0 12.752500534057617
v -12.772451400756836 0 6.3702521324157715
v -12.772451400756836 0 -0.0119963139295578
v -12.772451400756836 0 -6.3942451477050781
v -12.772451400756836 0 -12.776493072509766
v -12.772451400756836 0 -19.158742904663086
v -6.3935728073120117 0 19.134750366210938
v -6.3935728073120117 0 12.752500534057617
v -6.3935728073120117 0 6.3702521324157715
v -6.3935728073120117 0 -0.0119963139295578
v -6.3935728073120117 0 -6.3942451477050781
v -6.3935728073120117 0 -12.776493072509766
v -6.3935728073120117 0 -19.158742904663086
v -0.014694373123347759 0 19.134750366210938
v -0.014694373123347759 0 12.752500534057617
v -0.014694373123347759 0 6.3702521324157715
v -0.014694373123347759 0 -0.0119963139295578
v -0.014694373123347759 0 -6.3942451477050781
v -0.014694373123347759 0 -12.776493072509766
v -0.014694373123347759 0 -19.158742904663086
v 6.3641843795776367 0 19.134750366210938
v 6.3641843795776367 0 12.752500534057617
v 6.3641843795776367 0 6.3702521324157715
v 6.3641843795776367 0 -0.0119963139295578
v 6.3641843795776367 0 -6.3942451477050781
v 6.3641843795776367 0 -12.776493072509766
v 6.3641843795776367 0 -19.158742904663086
v 12.743062973022461 0 19.134750366210938
v 12.743062973022461 0 12.752500534057617
v 12.743062973022461 0 6.3702521324157715
v 12.743062973022461 0 -0.0119963139295578
v 12.743062973022461 0 -6.3942451477050781
v 12.743062973022461 0 -12.776493072509766
v 12.743062973022461 0 -19.158742904663086
v 19.121940612792969 0 12.752500534057617
v 19.121940612792969 0 6.3702521324157715
v 19.121940612792969 0 -0.0119963139295578
v 19.121940612792969 0 -6.3942451477050781
v 19.121940612792969 0 -12.776493072509766
v 25.000514984130859 0 -3.7691631860070629E-06
v 24.999557495117188 0 -0.14881381392478943
v 24.961673736572266 0 -1.3837828636169434
v 24.862819671630859 0 -2.6153719425201416
v 24.703239440917969 0 -3.8405730724334717
v 24.483318328857422 0 -5.0563931465148926
v 24.203598022460938 0 -6.2598633766174316
v 23.467628479003906 0 -8.6180305480957031
v 22.50251579284668 0 -10.892050743103027
v 21.317729949951172 0 -13.059748649597168
v 19.924629211425781 0 -15.099817276000977
v 18.337179183959961 0 -16.992582321166992
v 16.570539474487305 0 -18.71929931640625
v 14.642230987548828 0 -20.263391494750977
v 12.57083797454834 0 -21.609466552734375
v 10.376802444458008 0 -22.744712829589844
v 8.0813627243041992 0 -23.657695770263672
v 5.7070794105529785 0 -24.339868545532227
v 3.2770256996154785 0 -24.784189224243164
v 0.81500077247619629 0 -24.986711502075195
v -1.6549884080886841 0 -24.945058822631836
v -4.1088314056396484 0 -24.660037994384766
v -6.52252197265625 0 -24.134035110473633
v -8.8725776672363281 0 -23.372577667236328
v -11.135929107666016 0 -22.382717132568359
v -13.290637016296387 0 -21.174488067626953
v -15.315465927124023 0 -19.75933837890625
v -17.190874099731445 0 -18.151412963867188
v -18.898290634155273 0 -16.366109848022461
v -20.421333312988281 0 -14.421135902404785
v -21.744813919067383 0 -12.335235595703125
v -22.856149673461914 0 -10.128990173339844
v -23.744129180908203 0 -7.823763370513916
v -24.400459289550781 0 -5.4422063827514648
v -24.818342208862305 0 -3.0074670314788818
v -24.994094848632813 0 -0.54338657855987549
v -24.92559814453125 0 1.9260040521621704
v -24.613925933837891 0 4.3766040802001953
v -24.061721801757813 0 6.7844357490539551
v -23.274765014648438 0 9.1260766983032227
v -22.260366439819336 0 11.378536224365234
v -21.028789520263672 0 13.519985198974609
v -19.591716766357422 0 15.529314041137695
v -17.963504791259766 0 17.387136459350586
v -16.159748077392578 0 19.075048446655273
v -14.198336601257324 0 20.576862335205078
v -12.098175048828125 0 21.877593994140625
v -9.8799819946289063 0 22.964885711669922
v -7.5652399063110352 0 23.8277587890625
v -5.1766905784606934 0 24.458166122436523
v -2.7375533580780029 0 24.849563598632813
v -0.2717081606388092 0 24.998523712158203
v 2.1967921257019043 0 24.903194427490234
v 4.6438603401184082 0 24.564905166625977
v 7.0455479621887207 0 23.986562728881836
v 9.3784980773925781 0 23.174205780029297
v 11.619799613952637 0 22.135383605957031
v 13.747735977172852 0 20.880607604980469
v 15.741328239440918 0 19.421781539916992
v 17.581344604492188 0 17.773471832275391
v 19.249551773071289 0 15.951478958129883
v 20.729959487915039 0 13.973859786987305
v 22.007795333862305 0 11.859685897827148
v 23.07090950012207 0 9.6298065185546875
v 23.908554077148438 0 7.3058204650878906
v 24.512983322143555 0 4.9105629920959473
v 24.877986907958984 0 2.4673259258270264
v 22.311380386352539 0 -0.0119963139295578
v 19.121940612792969 0 3.1791279315948486
v 22.311380386352539 0 6.3702521324157715
v 22.311380386352539 0 3.1791279315948486
v 23.906099319458008 0 -0.0119963139295578
v 22.311380386352539 0 1.5835658311843872
v 23.906099319458008 0 3.1791279315948486
v 23.906099319458008 0 1.5835658311843872
v 22.311380386352539 0 -6.3942451477050781
v 19.121940612792969 0 -3.2031207084655762
v 22.311380386352539 0 -3.2031207084655762
v 24.703460693359375 0 -0.0119963139295578
v 23.906099319458008 0 0.78578478097915649
v 24.703460693359375 0 1.5835658311843872
v 24.703460693359375 0 0.78578478097915649
v 22.311380386352539 0 -1.6075584888458252
v 23.906099319458008 0 -1.6075584888458252
v 24.703460693359375 0 0.38689422607421875
v 24.703460693359375 0 -1.6075584888458252
v 23.906099319458008 0 -0.80977737903594971
v 24.703460693359375 0 -0.80977737903594971
v 24.703460693359375 0 -0.41088685393333435
vt 0.11570995301008224 0.24499279260635376
vt 0.11570995301008224 0.37267547845840454
vt 0.11570995301008224 0.50035816431045532
vt 0.11570995301008224 0.6280408501625061
vt 0.11570995301008224 0.75572347640991211
vt 0.2420371025800705 0.24499279260635376
vt 0.2420371025800705 0.37267547845840454
vt 0.2420371025800705 0.50035816431045532
vt 0.2420371025800705 0.6280408501625061
vt 0.2420371025800705 0.75572347640991211
vt 0.2420371025800705 0.88340616226196289
vt 0.36836424469947815 0.11731012165546417
vt 0.36836424469947815 0.24499279260635376
vt 0.36836424469947815 0.37267547845840454
vt 0.36836424469947815 0.50035816431045532
vt 0.36836424469947815 0.6280408501625061
vt 0.36836424469947815 0.75572347640991211
vt 0.36836424469947815 0.88340616226196289
vt 0.494691401720047 0.11731012165546417
vt 0.494691401720047 0.24499279260635376
vt 0.494691401720047 0.37267547845840454
vt 0.494691401720047 0.50035816431045532
vt 0.494691401720047 0.6280408501625061
vt 0.494691401720047 0.75572347640991211
vt 0.494691401720047 0.88340616226196289
vt 0.62101852893829346 0.11731012165546417
vt 0.62101852893829346 0.24499279260635376
vt 0.62101852893829346 0.37267547845840454
vt 0.62101852893829346 0.50035816431045532
vt 0.62101852893829346 0.6280408501625061
vt 0.62101852893829346 0.75572347640991211
vt 0.62101852893829346 0.88340616226196289
vt 0.7473456859588623 0.11731012165546417
vt 0.7473456859588623 0.24499279260635376
vt 0.7473456859588623 0.37267547845840454
vt 0.7473456859588623 0.50035816431045532
vt 0.7473456859588623 0.6280408501625061
vt 0.7473456859588623 0.75572347640991211
vt 0.7473456859588623 0.88340616226196289
vt 0.87367284297943115 0.24499279260635376
vt 0.87367284297943115 0.37267547845840454
vt 0.87367284297943115 0.50035816431045532
vt 0.87367284297943115 0.6280408501625061
vt 0.87367284297943115 0.75572347640991211
vt 0.99009197950363159 0.5001181960105896
vt 0.99007302522659302 0.50309532880783081
vt 0.98932278156280518 0.5278019905090332
vt 0.98736506700515747 0.5524410605430603
vt 0.98420470952987671 0.57695227861404419
vt 0.97984945774078369 0.60127586126327515
vt 0.97430986166000366 0.62535238265991211
vt 0.95973473787307739 0.67252969741821289
vt 0.94062167406082153 0.71802347898483276
vt 0.91715818643569946 0.76139026880264282
vt 0.88956928253173828 0.8022037148475647
vt 0.85813146829605103 0.84007018804550171
vt 0.82314497232437134 0.87461471557617188
vt 0.78495681285858154 0.9055057168006897
vt 0.7439349889755249 0.93243515491485596
vt 0.70048433542251587 0.95514678955078125
vt 0.65502548217773438 0.97341179847717285
vt 0.60800528526306152 0.98705935478210449
vt 0.55988055467605591 0.99594837427139282
vt 0.51112264394760132 1
vt 0.46220704913139343 0.99916672706604004
vt 0.41361120343208313 0.99346458911895752
vt 0.36581054329872131 0.98294144868850708
vt 0.31927010416984558 0.96770775318145752
vt 0.2744467556476593 0.94790470600128174
vt 0.23177497088909149 0.92373299598693848
vt 0.19167530536651611 0.89542168378829956
vt 0.15453475713729858 0.86325365304946899
vt 0.12072111666202545 0.82753705978393555
vt 0.090558841824531555 0.78862607479095459
vt 0.064348652958869934 0.74689573049545288
vt 0.042339805513620377 0.70275777578353882
vt 0.024754256010055542 0.65663963556289673
vt 0.011756334453821182 0.60899442434310913
vt 0.0034805790055543184 0.56028527021408081
vt 0 0.51098906993865967
vt 0.0013564715627580881 0.46158668398857117
vt 0.0075288433581590652 0.41256019473075867
vt 0.018464691936969757 0.36438935995101929
vt 0.034049529582262039 0.31754270195960999
vt 0.054138682782649994 0.27248018980026245
vt 0.078528784215450287 0.22963857650756836
vt 0.10698853433132172 0.18944013118743896
vt 0.13923361897468567 0.15227270126342773
vt 0.17495514452457428 0.11850447952747345
vt 0.21379891037940979 0.088459350168704987
vt 0.255390465259552 0.062437016516923904
vt 0.29931950569152832 0.040684778243303299
vt 0.34516057372093201 0.023422196507453918
vt 0.39246335625648499 0.010810344479978085
vt 0.44076797366142273 0.0029800897464156151
vt 0.4896014928817749 0
vt 0.53848761320114136 0.0019071480492129922
vt 0.58694928884506226 0.0086749289184808731
vt 0.63451224565505981 0.020245173946022987
vt 0.680713951587677 0.036497145891189575
vt 0.72510063648223877 0.057279694825410843
vt 0.76724225282669067 0.082382656633853912
vt 0.80672329664230347 0.11156779527664185
vt 0.8431628942489624 0.14454370737075806
vt 0.87620002031326294 0.18099434673786163
vt 0.90551799535751343 0.22055840492248535
vt 0.93082422018051147 0.26285436749458313
vt 0.9518781304359436 0.30746513605117798
vt 0.96846681833267212 0.35395857691764832
vt 0.98043692111968994 0.40187788009643555
vt 0.98766541481018066 0.45075705647468567
vt 0.93683642148971558 0.50035816431045532
vt 0.87367284297943115 0.43651682138442993
vt 0.93683642148971558 0.37267547845840454
vt 0.93683642148971558 0.43651682138442993
vt 0.96841824054718018 0.50035816431045532
vt 0.93683642148971558 0.46843749284744263
vt 0.96841824054718018 0.43651682138442993
vt 0.96841824054718018 0.46843749284744263
vt 0.93683642148971558 0.6280408501625061
vt 0.87367284297943115 0.56419950723648071
vt 0.93683642148971558 0.56419950723648071
vt 0.98420912027359009 0.50035816431045532
vt 0.96841824054718018 0.48439779877662659
vt 0.98420912027359009 0.46843749284744263
vt 0.98420912027359009 0.48439779877662659
vt 0.93683642148971558 0.53227883577346802
vt 0.96841824054718018 0.53227883577346802
vt 0.98420912027359009 0.49237796664237976
vt 0.98420912027359009 0.53227883577346802
vt 0.96841824054718018 0.51631850004196167
vt 0.98420912027359009 0.51631850004196167
vt 0.98420912027359009 0.5083383321762085
vn 0 1 0
vn 0 1 0
vn 0 1 0
vn 0 1 0
vn 0 1 0
vn 0 1 0
vn 0 1 0
vn 0 1 0
vn 0 1 0
vn 0 1 0
vn 0 1 0
vn 0 1 0
vn 0 1 0
vn 0 1 0
vn 0 1 0
vn 0 1 0
vn 0 1 0
vn 0 1 0
vn 0 1 0
vn 0 1 0
vn 0 1 0
vn 0 1 0
vn 0 1 0
vn 0 1 0
vn 0 1 0
vn 0 1 0
vn 0 1 0
vn 0 1 0
vn 0 1 0
vn 0 1 0
vn 0 1 0
vn 0 1 0
vn 0 1 0
vn 0 1 0
vn 0 1 0
vn 0 1 0
vn 0 1 0
vn 0 1 0
vn 0 1 0
vn 0 1 0
vn 0 1 0
vn 0 1 0
vn 0 1 0
vn 0 1 0
vn 0 1 0
vn 0 1 0
vn 0 1 0
vn 0 1 0
vn 0 1 0
vn 0 1 0
vn 0 1 0
vn 0 1 0
vn 0 1 0
vn 0 1 0
vn 0 1 0
vn 0 1 0
vn 0 1 0
vn 0 1 0
vn 0 1 0
vn 0 1 0
vn 0 1 0
vn 0 1 0
vn 0 1 0
vn 0 1 0
vn 0 1 0
vn 0 1 0
vn 0 1 0
vn 0 1 0
vn 0 1 0
vn 0 1 0
vn 0 1 0
vn 0 1 0
vn 0 1 0
vn 0 1 0
vn 0 1 0
vn 0 1 0
vn 0 1 0
vn 0 1 0
vn 0 1 0
vn 0 1 0
vn 0 1 0
vn 0 1 0
vn 0 1 0
vn 0 1 0
vn 0 1 0
vn 0 1 0
vn 0 1 0
vn 0 1 0
vn 0 1 0
vn 0 1 0
vn 0 1 0
vn 0 1 0
vn 0 1 0
vn 0 1 0
vn 0 1 0
vn 0 1 0
vn 0 1 0
vn 0 1 0
vn 0 1 0
vn 0 1 0
vn 0 1 0
vn 0 1 0
vn 0 1 0
vn 0 1 0
vn 0 1 0
vn 0 1 0
vn 0 1 0
vn 0 1 0
vn 0 1 0
vn 0 1 0
vn 0 1 0
vn 0 1 0
vn 0 1 0
vn 0 1 0
vn 0 1 0
vn 0 1 0
vn 0 1 0
vn 0 1 0
vn 0 1 0
vn 0 1 0
vn 0 1 0
vn 0 1 0
vn 0 1 0
vn 0 1 0
vn 0 1 0
vn 0 1 0
vn 0 1 0
vn 0 1 0
vn 0 1 0
vn 0 1 0
vn 0 1 0
vn 0 1 0
vn 0 1 0
f 84/84/84 85/85/85 86/86/86 87/87/87 88/88/88 89/89/89 90/90/90 91/91/91 92/92/92 93/93/93 94/94/94 95/95/95 96/96/96 97/97/97 98/98/98 99/99/99 100/100/100 101/101/101 102/102/102 103/103/103 104/104/104 105/105/105 106/106/106 107/107/107 108/108/108 109/109/109 110/110/110 111/111/111 45/45/45 46/46/46 47/47/47 48/48/48 49/49/49 50/50/50 51/51/51 52/52/52 53/53/53 54/54/54 55/55/55 56/56/56 57/57/57 58/58/58 59/59/59 60/60/60 61/61/61 62/62/62 63/63/63 64/64/64 65/65/65 66/66/66 67/67/67 68/68/68 69/69/69 70/70/70 71/71/71 72/72/72 73/73/73 74/74/74 75/75/75 76/76/76 77/77/77 78/78/78 79/79/79 80/80/80 81/81/81 82/82/82 83/83/83
