# Rhino

mtllib DOOR.mtl
usemtl diffuse_0
v -24.698734283447266 2.8250000476837158 -5.3100948333740234
v -24.698734283447266 4.6206510839752468E-11 -5.3100948333740234
v -24.971519470214844 2.8250000476837158 -3.8165655136108398
v -24.971519470214844 4.6197379255374926E-11 -3.8165655136108398
vt 0 0
vt 0 1
vt 1 0
vt 1 1
vn 0.97783577442169189 0 0.20937347412109375
vn 0.97783577442169189 0 0.20937347412109375
vn 0.98870933055877686 0 0.14984597265720367
vn 0.98870933055877686 0 0.14984597265720367
f 4/4/4 2/2/2 1/1/1 3/3/3
usemtl diffuse_0
v -24.337223052978516 2.8250000476837158 6.7744326591491699
v -24.337223052978516 4.6125769870286604E-11 6.7744326591491699
v -23.884834289550781 2.8250000476837158 8.2236909866333008
v -23.884834289550781 4.6116666041484677E-11 8.2236909866333008
vt 0 0
vt 0 1
vt 1 0
vt 1 1
vn 0.96312546730041504 0 -0.26905271410942078
vn 0.96312546730041504 0 -0.26905271410942078
vn 0.94515419006347656 0 -0.32662451267242432
vn 0.94515419006347656 0 -0.32662451267242432
f 8/8/8 6/6/6 5/5/5 7/7/7
usemtl diffuse_0
v -23.340080261230469 2.8250000476837158 9.6568717956542969
v -23.340080261230469 4.6107145879048517E-11 9.6568717956542969
v -22.716327667236328 2.8250000476837158 11.040824890136719
v -22.716327667236328 4.6098014294670975E-11 11.040824890136719
vt 0 0
vt 0 1
vt 1 0
vt 1 1
vn 0.92369276285171509 0 -0.38313406705856323
vn 0.92369276285171509 0 -0.38313406705856323
vn 0.89885354042053223 0 -0.43824920058250427
vn 0.89885354042053223 0 -0.43824920058250427
f 12/12/12 10/10/10 9/9/9 11/11/11
usemtl diffuse_0
v -22.00892448425293 2.8250000476837158 12.401082038879395
v -22.00892448425293 4.608852188781043E-11 12.401082038879395
v -21.625740051269531 2.8250000476837158 13.056488990783691
v -21.625740051269531 4.6083942217833851E-11 13.056488990783691
v -21.222944259643555 2.8250000476837158 13.700019836425781
v -21.222944259643555 4.6079362547857272E-11 13.700019836425781
vt 0 0
vt 0 1
vt 0.49999484419822693 0
vt 0.49999484419822693 1
vt 1 0
vt 1 1
vn 0.87079870700836182 0 -0.49163970351219177
vn 0.87079870700836182 0 -0.49163970351219177
vn 0.8555682897567749 0 -0.51769000291824341
vn 0.8555682897567749 0 -0.51769000291824341
vn 0.83953243494033813 0 -0.54330956935882568
vn 0.83953243494033813 0 -0.54330956935882568
f 16/16/16 14/14/14 13/13/13 15/15/15
f 18/18/18 16/16/16 15/15/15 17/17/17
usemtl diffuse_0
v -18.404457092285156 2.8250000476837158 17.309572219848633
v -18.404457092285156 4.6050996349578099E-11 17.309572219848633
v -17.875486373901367 2.8250000476837158 17.854320526123047
v -17.875486373901367 4.6046416679601521E-11 17.854320526123047
v -17.330276489257813 2.8250000476837158 18.38279914855957
v -17.330276489257813 4.6041837009624942E-11 18.38279914855957
vt 0 0
vt 0 1
vt 0.49999594688415527 0
vt 0.49999594688415527 1
vt 1 0
vt 1 1
vn 0.72788095474243164 0 -0.68570351600646973
vn 0.72788095474243164 0 -0.68570351600646973
vn 0.70679312944412231 0 -0.70742028951644897
vn 0.70679312944412231 0 -0.70742028951644897
vn 0.68505406379699707 0 -0.72849225997924805
vn 0.68505406379699707 0 -0.72849225997924805
f 22/22/22 20/20/20 19/19/19 21/21/21
f 24/24/24 22/22/22 21/21/21 23/23/23
usemtl diffuse_0
v -16.181711196899414 2.8250000476837158 19.398735046386719
v -16.181711196899414 4.6032344602764397E-11 19.398735046386719
v -14.986212730407715 2.8250000476837158 20.334569931030273
v -14.986212730407715 4.6023185262811239E-11 20.334569931030273
vt 0 0
vt 0 1
vt 1 0
vt 1 1
vn 0.63986688852310181 0 -0.76848572492599487
vn 0.63986688852310181 0 -0.76848572492599487
vn 0.59236377477645874 0 -0.80567061901092529
vn 0.59236377477645874 0 -0.80567061901092529
f 28/28/28 26/26/26 25/25/25 27/27/27
usemtl diffuse_0
v -11.071772575378418 2.8250000476837158 22.711008071899414
v -11.071772575378418 0 22.711008071899414
v -10.384006500244141 2.8250000476837158 23.032838821411133
v -10.384006500244141 0 23.032838821411133
v -9.6868352890014648 2.8250000476837158 23.333734512329102
v -9.6868352890014648 0 23.333734512329102
vt 0 0
vt 0 1
vt 0.49999535083770752 0
vt 0.49999535083770752 1
vt 1 0
vt 1 1
vn 0.43745404481887817 0 -0.89924079179763794
vn 0.43745404481887817 0 -0.89924079179763794
vn 0.41010329127311707 0 -0.91203910112380981
vn 0.41010329127311707 0 -0.91203910112380981
vn 0.38232117891311646 0 -0.92402952909469604
vn 0.38232117891311646 0 -0.92402952909469604
f 32/32/32 30/30/30 29/29/29 31/31/31
f 34/34/34 32/32/32 31/31/31 33/33/33
usemtl diffuse_0
v -8.2530784606933594 2.8250000476837158 23.878915786743164
v -8.2530784606933594 4.5976361606747673E-11 23.878915786743164
v -7.5315413475036621 2.8250000476837158 24.115419387817383
v -7.5315413475036621 4.5971795814558902E-11 24.115419387817383
v -6.8032102584838867 2.8250000476837158 24.330055236816406
v -6.8032102584838867 4.5967230022370131E-11 24.330055236816406
vt 0 0
vt 0 1
vt 0.49999436736106873 0
vt 0.49999436736106873 1
vt 1 0
vt 1 1
vn 0.32577139139175415 0 -0.94544857740402222
vn 0.32577139139175415 0 -0.94544857740402222
vn 0.29710757732391357 0 -0.95484399795532227
vn 0.29710757732391357 0 -0.95484399795532227
vn 0.26818019151687622 0 -0.96336877346038818
vn 0.26818019151687622 0 -0.96336877346038818
f 38/38/38 36/36/36 35/35/35 37/37/37
f 40/40/40 38/38/38 37/37/37 39/39/39
usemtl diffuse_0
v -5.3141059875488281 2.8250000476837158 24.696073532104492
v -5.3141059875488281 4.5957487815329046E-11 24.696073532104492
v -4.5694255828857422 2.8250000476837158 24.843896865844727
v -4.5694255828857422 4.5952922023140275E-11 24.843896865844727
v -3.8206250667572021 2.8250000476837158 24.969120025634766
v -3.8206250667572021 4.5948356230951504E-11 24.969120025634766
vt 0 0
vt 0 1
vt 0.49999454617500305 0
vt 0.49999454617500305 1
vt 1 0
vt 1 1
vn 0.20954744517803192 0 -0.9777984619140625
vn 0.20954744517803192 0 -0.9777984619140625
vn 0.17983458936214447 0 -0.98369687795639038
vn 0.17983458936214447 0 -0.98369687795639038
vn 0.15001711249351501 0 -0.98868340253829956
vn 0.15001711249351501 0 -0.98868340253829956
f 44/44/44 42/42/42 41/41/41 43/43/43
f 46/46/46 44/44/44 43/43/43 45/45/45
usemtl diffuse_0
v 6.769528865814209 2.8250000476837158 24.333139419555664
v 6.769528865814209 0 24.333139419555664
v 7.4975042343139648 2.8250000476837158 24.118005752563477
v 7.4975042343139648 0 24.118005752563477
v 8.2186508178710938 2.8250000476837158 23.881019592285156
v 8.2186508178710938 0 23.881019592285156
vt 0 0
vt 0 1
vt 0.49999436736106873 0
vt 0.49999436736106873 1
vt 1 0
vt 1 1
vn -0.26891422271728516 0 -0.96316415071487427
vn -0.26891422271728516 0 -0.96316415071487427
vn -0.29783573746681213 0 -0.95461714267730713
vn -0.29783573746681213 0 -0.95461714267730713
vn -0.32649299502372742 0 -0.94519960880279541
vn -0.32649299502372742 0 -0.94519960880279541
f 50/50/50 48/48/48 47/47/47 49/49/49
f 52/52/52 50/50/50 49/49/49 51/51/51
usemtl diffuse_0
v 12.395404815673828 2.8250000476837158 22.006093978881836
v 12.395404815673828 0 22.006093978881836
v 13.694272994995117 2.8250000476837158 21.220405578613281
v 13.694272994995117 0 21.220405578613281
vt 0 0
vt 0 1
vt 1 0
vt 1 1
vn -0.49151763319969177 0 -0.87086760997772217
vn -0.49151763319969177 0 -0.87086760997772217
vn -0.54319119453430176 0 -0.83960902690887451
vn -0.54319119453430176 0 -0.83960902690887451
f 56/56/56 54/54/54 53/53/53 55/55/55
usemtl diffuse_0
v 17.301580429077148 2.8250000476837158 18.399995803833008
v 17.301580429077148 0 18.399995803833008
v 18.374593734741211 2.8250000476837158 17.326206207275391
v 18.374593734741211 0 17.326206207275391
vt 0 0
vt 0 1
vt 1 0
vt 1 1
vn -0.68563252687454224 0 -0.72794783115386963
vn -0.68563252687454224 0 -0.72794783115386963
vn -0.72844564914703369 0 -0.68510359525680542
vn -0.72844564914703369 0 -0.68510359525680542
f 60/60/60 58/58/58 57/57/57 59/59/59
usemtl diffuse_0
v 19.390312194824219 2.8250000476837158 16.178045272827148
v 19.390312194824219 0 16.178045272827148
v 19.867160797119141 2.8250000476837158 15.587563514709473
v 19.867160797119141 0 15.587563514709473
v 20.325994491577148 2.8250000476837158 14.982985496520996
v 20.325994491577148 0 14.982985496520996
vt 0 0
vt 0 1
vt 0.49999627470970154 0
vt 0.49999627470970154 1
vt 1 0
vt 1 1
vn -0.76843726634979248 0 -0.63992512226104736
vn -0.76843726634979248 0 -0.63992512226104736
vn -0.78737050294876099 0 -0.61648005247116089
vn -0.78737050294876099 0 -0.61648005247116089
vn -0.80559384822845459 0 -0.59246814250946045
vn -0.80559384822845459 0 -0.59246814250946045
f 64/64/64 62/62/62 61/61/61 63/63/63
f 66/66/66 64/64/64 63/63/63 65/65/65
usemtl diffuse_0
v 21.205522537231445 2.8250000476837158 13.727599143981934
v 21.205522537231445 0 13.727599143981934
v 21.607933044433594 2.8250000476837158 13.08377742767334
v 21.607933044433594 0 13.08377742767334
v 21.990728378295898 2.8250000476837158 12.428105354309082
v 21.990728378295898 0 12.428105354309082
vt 0 0
vt 0 1
vt 0.49999666213989258 0
vt 0.49999666213989258 1
vt 1 0
vt 1 1
vn -0.83988493680953979 0 -0.54276448488235474
vn -0.83988493680953979 0 -0.54276448488235474
vn -0.85588937997817993 0 -0.51715892553329468
vn -0.85588937997817993 0 -0.51715892553329468
vn -0.87110430002212524 0 -0.49109804630279541
vn -0.87110430002212524 0 -0.49109804630279541
f 70/70/70 68/68/68 67/67/67 69/69/69
f 72/72/72 70/70/70 69/69/69 71/71/71
usemtl diffuse_0
v 23.870136260986328 2.8250000476837158 8.2520999908447266
v 23.870136260986328 0 8.2520999908447266
v 24.320829391479492 2.8250000476837158 6.8025403022766113
v 24.320829391479492 0 6.8025403022766113
vt 0 0
vt 0 1
vt 1 0
vt 1 1
vn -0.9455229640007019 0 -0.32555535435676575
vn -0.9455229640007019 0 -0.32555535435676575
vn -0.96341544389724731 0 -0.26801252365112305
vn -0.96341544389724731 0 -0.26801252365112305
f 76/76/76 74/74/74 73/73/73 75/75/75
usemtl diffuse_0
v 25.14788818359375 2.8250000476837158 2.2995734214782715
v 25.14788818359375 0 2.2995734214782715
v 25.205053329467773 2.8250000476837158 1.5427064895629883
v 25.205053329467773 0 1.5427064895629883
v 25.239128112792969 2.8250000476837158 0.78444075584411621
v 25.239128112792969 0 0.78444075584411621
vt 0 0
vt 0 1
vt 0.50000280141830444 0
vt 0.50000280141830444 1
vt 1 0
vt 1 1
vn -0.99590069055557251 0 -0.090453200042247772
vn -0.99590069055557251 0 -0.090453200042247772
vn -0.99819028377532959 0 -0.060134712606668472
vn -0.99819028377532959 0 -0.060134712606668472
vn -0.99956154823303223 0 -0.029610149562358856
vn -0.99956154823303223 0 -0.029610149562358856
f 80/80/80 78/78/78 77/77/77 79/79/79
f 82/82/82 80/80/80 79/79/79 81/81/81
usemtl diffuse_0
v 24.339462280273438 2.8250000476837158 -6.7912564277648926
v 24.339462280273438 1.3799583697959861E-10 -6.7912564277648926
v 23.886558532714844 2.8250000476837158 -8.240544319152832
v 23.886558532714844 1.3798673315079668E-10 -8.240544319152832
vt 0 0
vt 0 1
vt 1 0
vt 1 1
vn -0.96302491426467896 0 0.26941239833831787
vn -0.96302491426467896 0 0.26941239833831787
vn -0.94505548477172852 0 0.32690998911857605
vn -0.94505548477172852 0 0.32690998911857605
f 86/86/86 84/84/84 83/83/83 85/85/85
usemtl diffuse_0
v 23.34454345703125 2.8250000476837158 -9.6747846603393555
v 23.34454345703125 1.3797721298836052E-10 -9.6747846603393555
v 22.719820022583008 2.8250000476837158 -11.058794021606445
v 22.719820022583008 1.3796808140398298E-10 -11.058794021606445
vt 0 0
vt 0 1
vt 1 0
vt 1 1
vn -0.92351913452148438 0 0.38355237245559692
vn -0.92351913452148438 0 0.38355237245559692
vn -0.89856398105621338 0 0.4388425350189209
vn -0.89856398105621338 0 0.4388425350189209
f 90/90/90 88/88/88 87/87/87 89/89/89
usemtl diffuse_0
v 18.397497177124023 2.8250000476837158 -17.322061538696289
v 18.397497177124023 1.3792125774791941E-10 -17.322061538696289
v 17.322761535644531 2.8250000476837158 -18.39472770690918
v 17.322761535644531 1.3791212616354187E-10 -18.39472770690918
vt 0 0
vt 0 1
vt 1 0
vt 1 1
vn -0.72753041982650757 0 0.68607538938522339
vn -0.72753041982650757 0 0.68607538938522339
vn -0.6846691370010376 0 0.72885400056838989
vn -0.6846691370010376 0 0.72885400056838989
f 94/94/94 92/92/92 91/91/91 93/93/93
usemtl diffuse_0
v 13.718559265136719 2.8250000476837158 -21.220541000366211
v 13.718559265136719 1.3788373220968708E-10 -21.220541000366211
v 13.074361801147461 2.8250000476837158 -21.622489929199219
v 13.074361801147461 1.3787916641749831E-10 -21.622489929199219
v 12.418331146240234 2.8250000476837158 -22.004804611206055
v 12.418331146240234 1.3787460062530954E-10 -22.004804611206055
vt 0 0
vt 0 1
vt 0.49999368190765381 0
vt 0.49999368190765381 1
vt 1 0
vt 1 1
vn -0.54212397336959839 0 0.84029853343963623
vn -0.54212397336959839 0 0.84029853343963623
vn -0.51648598909378052 0 0.85629564523696899
vn -0.51648598909378052 0 0.85629564523696899
vn -0.49041748046875 0 0.87148761749267578
vn -0.49041748046875 0 0.87148761749267578
f 98/98/98 96/96/96 95/95/95 97/97/97
f 100/100/100 98/98/98 97/97/97 99/99/99
usemtl diffuse_0
v 11.061548233032227 2.8250000476837158 -22.718765258789063
v 11.061548233032227 1.37865108218449E-10 -22.718765258789063
v 9.676361083984375 2.8250000476837158 -23.340784072875977
v 9.676361083984375 1.3785594887849584E-10 -23.340784072875977
vt 0 0
vt 0 1
vt 1 0
vt 1 1
vn -0.43700799345970154 0 0.89945763349533081
vn -0.43700799345970154 0 0.89945763349533081
vn -0.38186821341514587 0 0.92421680688858032
vn -0.38186821341514587 0 0.92421680688858032
f 104/104/104 102/102/102 101/101/101 103/103/103
usemtl diffuse_0
v 5.3041067123413086 2.8250000476837158 -24.705389022827148
v 5.3041067123413086 1.3783371666242772E-10 -24.705389022827148
v 4.5592536926269531 2.8250000476837158 -24.852888107299805
v 4.5592536926269531 1.3782915087023895E-10 -24.852888107299805
v 3.8102915287017822 2.8250000476837158 -24.977785110473633
v 3.8102915287017822 1.3782458507805018E-10 -24.977785110473633
vt 0 0
vt 0 1
vt 0.4999944269657135 0
vt 0.4999944269657135 1
vt 1 0
vt 1 1
vn -0.20909178256988525 0 0.97789603471755981
vn -0.20909178256988525 0 0.97789603471755981
vn -0.17938083410263062 0 0.98377972841262817
vn -0.17938083410263062 0 0.98377972841262817
vn -0.14956651628017426 0 0.98875164985656738
vn -0.14956651628017426 0 0.98875164985656738
f 108/108/108 106/106/106 105/105/105 107/107/107
f 110/110/110 108/108/108 107/107/107 109/109/109
usemtl diffuse_0
v -6.7820062637329102 2.8250000476837158 -24.340560913085938
v -6.7820062637329102 9.206033158015714E-11 -24.340560913085938
v -8.2313518524169922 2.8250000476837158 -23.887746810913086
v -8.2313518524169922 9.2051255506930829E-11 -23.887746810913086
vt 0 0
vt 0 1
vt 1 0
vt 1 1
vn 0.26929625868797302 0 0.96305739879608154
vn 0.26929625868797302 0 0.96305739879608154
vn 0.32685965299606323 0 0.94507288932800293
vn 0.32685965299606323 0 0.94507288932800293
f 114/114/114 112/112/112 111/111/111 113/113/113
usemtl diffuse_0
v -14.970967292785645 2.8250000476837158 -20.354608535766602
v -14.970967292785645 9.2004404095291648E-11 -20.354608535766602
v -16.165584564208984 2.8250000476837158 -19.417304992675781
v -16.165584564208984 9.1995300266489721E-11 -19.417304992675781
vt 0 0
vt 0 1
vt 1 0
vt 1 1
vn 0.59326684474945068 0 0.80500590801239014
vn 0.59326684474945068 0 0.80500590801239014
vn 0.64072591066360474 0 0.76776969432830811
vn 0.64072591066360474 0 0.76776969432830811
f 118/118/118 116/116/116 115/115/115 117/117/117
usemtl diffuse_0
v -21.214780807495117 2.8250000476837158 -13.72423267364502
v -21.214780807495117 9.1948199054669999E-11 -13.72423267364502
v -21.99945068359375 2.8250000476837158 -12.424249649047852
v -21.99945068359375 9.1939122981443688E-11 -12.424249649047852
vt 0 0
vt 0 1
vt 1 0
vt 1 1
vn 0.8401263952255249 0 0.54239064455032349
vn 0.8401263952255249 0 0.54239064455032349
vn 0.87133681774139404 0 0.49068537354469299
vn 0.87133681774139404 0 0.49068537354469299
f 122/122/122 120/120/120 119/119/119 121/121/121
usemtl diffuse_0
v -22.710838317871094 2.8250000476837158 -11.065840721130371
v -22.710838317871094 9.1929575063431912E-11 -11.065840721130371
v -23.032470703125 2.8250000476837158 -10.378131866455078
v -23.032470703125 9.1925023149030949E-11 -10.378131866455078
v -23.333169937133789 2.8250000476837158 -9.6810245513916016
v -23.333169937133789 9.1920471234629986E-11 -9.6810245513916016
vt 0 0
vt 0 1
vt 0.49999529123306274 0
vt 0.49999529123306274 1
vt 1 0
vt 1 1
vn 0.89933180809020996 0 0.43726688623428345
vn 0.89933180809020996 0 0.43726688623428345
vn 0.91212368011474609 0 0.40991508960723877
vn 0.91212368011474609 0 0.40991508960723877
vn 0.92410778999328613 0 0.38213196396827698
vn 0.92410778999328613 0 0.38213196396827698
f 126/126/126 124/124/124 123/123/123 125/125/125
f 128/128/128 126/126/126 125/125/125 127/127/127
