# Rhino

mtllib GLASS5.mtl
usemtl diffuse_0
v -2.3063838481903076 2.625 25.153224945068359
v -2.3063838481903076 4.5943304716189459E-11 25.153224945068359
v -0.78358113765716553 2.625 25.246589660644531
v -0.78358113765716553 4.5935810710773239E-11 25.246589660644531
vt 0 0
vt 0 1
vt 1 0
vt 1 1
vn 0.091276876628398895 0 -0.99582552909851074
vn 0.091276876628398895 0 -0.99582552909851074
vn 0.031035248190164566 0 -0.99951827526092529
vn 0.031035248190164566 0 -0.99951827526092529
f 4/4/4 2/2/2 1/1/1 3/3/3
usemtl diffuse_0
v 3.7797470092773438 2.625 24.974113464355469
v 3.7797470092773438 0 24.974113464355469
v 4.5322766304016113 2.625 24.848575592041016
v 4.5322766304016113 0 24.848575592041016
v 5.2806692123413086 2.625 24.700326919555664
v 5.2806692123413086 0 24.700326919555664
vt 0 0
vt 0 1
vt 0.50000280141830444 0
vt 0.50000280141830444 1
vt 1 0
vt 1 1
vn -0.1496252566576004 0 -0.98874276876449585
vn -0.1496252566576004 0 -0.98874276876449585
vn -0.17944043874740601 0 -0.98376882076263428
vn -0.17944043874740601 0 -0.98376882076263428
vn -0.20915450155735016 0 -0.97788262367248535
vn -0.20915450155735016 0 -0.97788262367248535
f 8/8/8 6/6/6 5/5/5 7/7/7
f 10/10/10 8/8/8 7/7/7 9/9/9
usemtl diffuse_0
v 24.976211547851563 2.625 -3.8002438545227051
v 24.976211547851563 1.3801901288523766E-10 -3.8002438545227051
v 24.849832534790039 2.625 -4.5526065826416016
v 24.849832534790039 1.3801526588252955E-10 -4.5526065826416016
v 24.700881958007813 2.625 -5.3008255958557129
v 24.700881958007813 1.3801151887982144E-10 -5.3008255958557129
vt 0 0
vt 0 1
vt 0.49999856948852539 0
vt 0.49999856948852539 1
vt 1 0
vt 1 1
vn -0.98856592178344727 0 0.15078923106193542
vn -0.98856592178344727 0 0.15078923106193542
vn -0.98357921838760376 0 0.18047687411308289
vn -0.98357921838760376 0 0.18047687411308289
vn -0.9777105450630188 0 0.2099573016166687
vn -0.9777105450630188 0 0.2099573016166687
f 14/14/14 12/12/12 11/11/11 13/13/13
f 16/16/16 14/14/14 13/13/13 15/15/15
usemtl diffuse_0
v 2.2954442501068115 2.625 -25.157756805419922
v 2.2954442501068115 1.3781342733665269E-10 -25.157756805419922
v 1.5347228050231934 2.625 -25.21558952331543
v 1.5347228050231934 1.378097080895202E-10 -25.21558952331543
v 0.77260088920593262 2.625 -25.250444412231445
v 0.77260088920593262 1.3780598884238771E-10 -25.250444412231445
vt 0 0
vt 0 1
vt 0.50000077486038208 0
vt 0.50000077486038208 1
vt 1 0
vt 1 1
vn -0.090831898152828217 0 0.99586623907089233
vn -0.090831898152828217 0 0.99586623907089233
vn -0.06075875461101532 0 0.99815249443054199
vn -0.06075875461101532 0 0.99815249443054199
vn -0.030596060678362846 0 0.99953180551528931
vn -0.030596060678362846 0 0.99953180551528931
f 20/20/20 18/18/18 17/17/17 19/19/19
f 22/22/22 20/20/20 19/19/19 21/21/21
usemtl diffuse_0
v 8.2482213973999023 2.625 -23.87809944152832
v 8.2482213973999023 1.3785084185258256E-10 -23.87809944152832
v 7.5234174728393555 2.625 -24.116218566894531
v 7.5234174728393555 1.3784712260545007E-10 -24.116218566894531
v 6.7917637825012207 2.625 -24.332374572753906
v 6.7917637825012207 1.3784340335831757E-10 -24.332374572753906
vt 0 0
vt 0 1
vt 0.4999995231628418 0
vt 0.4999995231628418 1
vt 1 0
vt 1 1
vn -0.32640889286994934 0 0.94522863626480103
vn -0.32640889286994934 0 0.94522863626480103
vn -0.29775524139404297 0 0.95464223623275757
vn -0.29775524139404297 0 0.95464223623275757
vn -0.26883780956268311 0 0.96318548917770386
vn -0.26883780956268311 0 0.96318548917770386
f 26/26/26 24/24/24 23/23/23 25/25/25
f 28/28/28 26/26/26 25/25/25 27/27/27
usemtl diffuse_0
v 16.17814826965332 2.625 -19.403207778930664
v 16.17814826965332 1.3790688035975052E-10 -19.403207778930664
v 15.584860801696777 2.625 -19.882844924926758
v 15.584860801696777 1.3790313335704241E-10 -19.882844924926758
v 14.977376937866211 2.625 -20.344371795654297
v 14.977376937866211 1.378993863543343E-10 -20.344371795654297
vt 0 0
vt 0 1
vt 0.50000059604644775 0
vt 0.50000059604644775 1
vt 1 0
vt 1 1
vn -0.64034360647201538 0 0.76808857917785645
vn -0.64034360647201538 0 0.76808857917785645
vn -0.61689233779907227 0 0.78704750537872314
vn -0.61689233779907227 0 0.78704750537872314
vn -0.5928657054901123 0 0.80530130863189697
vn -0.5928657054901123 0 0.80530130863189697
f 32/32/32 30/30/30 29/29/29 31/31/31
f 34/34/34 32/32/32 31/31/31 33/33/33
usemtl diffuse_0
v 20.35081672668457 2.625 -14.969045639038086
v 20.35081672668457 1.3794423936452915E-10 -14.969045639038086
v 19.889476776123047 2.625 -15.576667785644531
v 19.889476776123047 1.3794049236182104E-10 -15.576667785644531
v 19.410039901733398 2.625 -16.170112609863281
v 19.410039901733398 1.3793674535911293E-10 -16.170112609863281
vt 0 0
vt 0 1
vt 0.50000196695327759 0
vt 0.50000196695327759 1
vt 1 0
vt 1 1
vn -0.80547147989273071 0 0.59263449907302856
vn -0.80547147989273071 0 0.59263449907302856
vn -0.78724652528762817 0 0.61663836240768433
vn -0.78724652528762817 0 0.61663836240768433
vn -0.76831203699111938 0 0.6400754451751709
vn -0.76831203699111938 0 0.6400754451751709
f 38/38/38 36/36/36 35/35/35 37/37/37
f 40/40/40 38/38/38 37/37/37 39/39/39
usemtl diffuse_0
v 22.006780624389648 2.625 -12.407798767089844
v 22.006780624389648 1.379629743780697E-10 -12.407798767089844
v 21.217483520507813 2.625 -13.713434219360352
v 21.217483520507813 1.379555081282291E-10 -13.713434219360352
vt 0 0
vt 0 1
vt 1 0
vt 1 1
vn -0.87099611759185791 0 0.49128985404968262
vn -0.87099611759185791 0 0.49128985404968262
vn -0.83977323770523071 0 0.54293727874755859
vn -0.83977323770523071 0 0.54293727874755859
f 44/44/44 42/42/42 41/41/41 43/43/43
usemtl diffuse_0
v -3.7906107902526855 2.625 -24.976022720336914
v -3.7906107902526855 9.2083979330581656E-11 -24.976022720336914
v -4.543088436126709 2.625 -24.850175857543945
v -4.543088436126709 9.2080232327873546E-11 -24.850175857543945
v -5.2914199829101563 2.625 -24.701620101928711
v -5.2914199829101563 9.2076485325165436E-11 -24.701620101928711
vt 0 0
vt 0 1
vt 0.50000274181365967 0
vt 0.50000274181365967 1
vt 1 0
vt 1 1
vn 0.15003429353237152 0 0.98868077993392944
vn 0.15003429353237152 0 0.98868077993392944
vn 0.17984434962272644 0 0.98369508981704712
vn 0.17984434962272644 0 0.98369508981704712
vn 0.20955242216587067 0 0.97779738903045654
vn 0.20955242216587067 0 0.97779738903045654
f 48/48/48 46/46/46 45/45/45 47/47/47
f 50/50/50 48/48/48 47/47/47 49/49/49
usemtl diffuse_0
v -25.155364990234375 2.625 -2.3022933006286621
v -25.155364990234375 9.1878338270845461E-11 -2.3022933006286621
v -25.24847412109375 2.625 -0.77947527170181274
v -25.24847412109375 9.1870844265429241E-11 -0.77947527170181274
vt 0 0
vt 0 1
vt 1 0
vt 1 1
vn 0.99584096670150757 0 0.091108851134777069
vn 0.99584096670150757 0 0.091108851134777069
vn 0.99952340126037598 0 0.030870454385876656
vn 0.99952340126037598 0 0.030870454385876656
f 54/54/54 52/52/52 51/51/51 53/53/53
usemtl diffuse_0
v -23.874000549316406 2.625 -8.2547016143798828
v -23.874000549316406 9.1915780542350944E-11 -8.2547016143798828
v -24.112331390380859 2.625 -7.5299677848815918
v -24.112331390380859 9.1912033539642835E-11 -7.5299677848815918
v -24.328701019287109 2.625 -6.7983770370483398
v -24.328701019287109 9.1908286536934725E-11 -6.7983770370483398
vt 0 0
vt 0 1
vt 0.49999949336051941 0
vt 0.49999949336051941 1
vt 1 0
vt 1 1
vn 0.94513231515884399 0 0.32668781280517578
vn 0.94513231515884399 0 0.32668781280517578
vn 0.95455491542816162 0 0.29803502559661865
vn 0.95455491542816162 0 0.29803502559661865
vn 0.96310710906982422 0 0.26911827921867371
vn 0.96310710906982422 0 0.26911827921867371
f 58/58/58 56/56/56 55/55/55 57/57/57
f 60/60/60 58/58/58 57/57/57 59/59/59
usemtl diffuse_0
v -19.39665412902832 2.625 -16.183229446411133
v -19.39665412902832 9.1971846805094515E-11 -16.183229446411133
v -19.876483917236328 2.625 -15.590100288391113
v -19.876483917236328 9.1968099802386405E-11 -15.590100288391113
v -20.33820915222168 2.625 -14.982768058776855
v -20.33820915222168 9.1964352799678295E-11 -14.982768058776855
vt 0 0
vt 0 1
vt 0.50000029802322388 0
vt 0.50000029802322388 1
vt 1 0
vt 1 1
vn 0.76788109540939331 0 0.64059239625930786
vn 0.76788109540939331 0 0.64059239625930786
vn 0.78684645891189575 0 0.61714881658554077
vn 0.78684645891189575 0 0.61714881658554077
vn 0.80510842800140381 0 0.59312766790390015
vn 0.80510842800140381 0 0.59312766790390015
f 64/64/64 62/62/62 61/61/61 63/63/63
f 66/66/66 64/64/64 63/63/63 65/65/65
usemtl diffuse_0
v -17.305070877075195 2.625 -18.403043746948242
v -17.305070877075195 9.1990498551908217E-11 -18.403043746948242
v -17.852910995483398 2.625 -17.872062683105469
v -17.852910995483398 9.1986751549200108E-11 -17.872062683105469
v -18.384429931640625 2.625 -17.324747085571289
v -18.384429931640625 9.1983004546491998E-11 -17.324747085571289
vt 0 0
vt 0 1
vt 0.50000190734863281 0
vt 0.50000190734863281 1
vt 1 0
vt 1 1
vn 0.68502205610275269 0 0.72852236032485962
vn 0.68502205610275269 0 0.72852236032485962
vn 0.70675790309906006 0 0.70745551586151123
vn 0.70675790309906006 0 0.70745551586151123
vn 0.72784823179244995 0 0.68573826551437378
vn 0.72784823179244995 0 0.68573826551437378
f 70/70/70 68/68/68 67/67/67 69/69/69
f 72/72/72 70/70/70 69/69/69 71/71/71
usemtl diffuse_0
v -12.39914608001709 2.625 -22.009298324584961
v -12.39914608001709 9.2027913067838085E-11 -22.009298324584961
v -13.705179214477539 2.625 -21.220666885375977
v -13.705179214477539 9.2020419062421865E-11 -21.220666885375977
vt 0 0
vt 0 1
vt 1 0
vt 1 1
vn 0.49083912372589111 0 0.8712502121925354
vn 0.49083912372589111 0 0.8712502121925354
vn 0.54253464937210083 0 0.84003341197967529
vn 0.54253464937210083 0 0.84003341197967529
f 76/76/76 74/74/74 73/73/73 75/75/75
usemtl diffuse_0
v -9.6564311981201172 2.625 -23.343364715576172
v -9.6564311981201172 9.2046564814651788E-11 -23.343364715576172
v -11.047941207885742 2.625 -22.717731475830078
v -11.047941207885742 9.2039098564811184E-11 -22.717731475830078
vt 0 0
vt 0 1
vt 1 0
vt 1 1
vn 0.38229367136955261 0 0.92404085397720337
vn 0.38229367136955261 0 0.92404085397720337
vn 0.43742659687995911 0 0.89925414323806763
vn 0.43742659687995911 0 0.89925414323806763
f 80/80/80 78/78/78 77/77/77 79/79/79
usemtl diffuse_0
v -24.975276947021484 2.625 3.7838099002838135
v -24.975276947021484 4.6148834753623191E-11 3.7838099002838135
v -24.849624633789063 2.625 4.5363202095031738
v -24.849624633789063 4.6145115506490697E-11 4.5363202095031738
v -24.701263427734375 2.625 5.2846908569335938
v -24.701263427734375 4.6141396259358203E-11 5.2846908569335938
vt 0 0
vt 0 1
vt 0.50000274181365967 0
vt 0.50000274181365967 1
vt 1 0
vt 1 1
vn 0.98871999979019165 0 -0.14977565407752991
vn 0.98871999979019165 0 -0.14977565407752991
vn 0.98374181985855103 0 -0.17958846688270569
vn 0.98374181985855103 0 -0.17958846688270569
vn 0.9778515100479126 0 -0.20929987728595734
vn 0.9778515100479126 0 -0.20929987728595734
f 84/84/84 82/82/82 81/81/81 83/83/83
f 86/86/86 84/84/84 83/83/83 85/85/85
usemtl diffuse_0
v -13.730972290039063 2.625 21.201330184936523
v -13.730972290039063 4.6018078236897964E-11 21.201330184936523
v -13.084383964538574 2.625 21.60627555847168
v -13.084383964538574 4.6014331234189854E-11 21.60627555847168
v -12.42586612701416 2.625 21.991508483886719
v -12.42586612701416 4.6010584231481744E-11 21.991508483886719
vt 0 0
vt 0 1
vt 0.49999788403511047 0
vt 0.49999788403511047 1
vt 1 0
vt 1 1
vn 0.54353123903274536 0 -0.83938890695571899
vn 0.54353123903274536 0 -0.83938890695571899
vn 0.51791304349899292 0 -0.85543328523635864
vn 0.51791304349899292 0 -0.85543328523635864
vn 0.49186429381370544 0 -0.87067186832427979
vn 0.49186429381370544 0 -0.87067186832427979
f 90/90/90 88/88/88 87/87/87 89/89/89
f 92/92/92 90/90/90 89/89/89 91/91/91
usemtl diffuse_0
v -20.356513977050781 2.625 14.955492973327637
v -20.356513977050781 4.6074088988490303E-11 14.955492973327637
v -19.416408538818359 2.625 16.157093048095703
v -19.416408538818359 4.6066622738649698E-11 16.157093048095703
vt 0 0
vt 0 1
vt 1 0
vt 1 1
vn 0.80582571029663086 0 -0.59215277433395386
vn 0.80582571029663086 0 -0.59215277433395386
vn 0.76865237951278687 0 -0.63966673612594604
vn 0.76865237951278687 0 -0.63966673612594604
f 96/96/96 94/94/94 93/93/93 95/95/95
usemtl diffuse_0
v 9.6462135314941406 2.625 23.343784332275391
v 9.6462135314941406 0 23.343784332275391
v 11.037959098815918 2.625 22.718673706054688
v 11.037959098815918 0 22.718673706054688
vt 0 0
vt 0 1
vt 1 0
vt 1 1
vn -0.38194236159324646 0 -0.92418617010116577
vn -0.38194236159324646 0 -0.92418617010116577
vn -0.43709436058998108 0 -0.89941567182540894
vn -0.43709436058998108 0 -0.89941567182540894
f 100/100/100 98/98/98 97/97/97 99/99/99
usemtl diffuse_0
v 14.952046394348145 2.625 20.356876373291016
v 14.952046394348145 0 20.356876373291016
v 16.153770446777344 2.625 19.416912078857422
v 16.153770446777344 0 19.416912078857422
vt 0 0
vt 0 1
vt 1 0
vt 1 1
vn -0.59205007553100586 0 -0.8059011697769165
vn -0.59205007553100586 0 -0.8059011697769165
vn -0.63957637548446655 0 -0.76872754096984863
vn -0.63957637548446655 0 -0.76872754096984863
f 104/104/104 102/102/102 101/101/101 103/103/103
usemtl diffuse_0
v 22.699457168579102 2.625 11.076874732971191
v 22.699457168579102 0 11.076874732971191
v 23.326822280883789 2.625 9.6861324310302734
v 23.326822280883789 0 9.6861324310302734
vt 0 0
vt 0 1
vt 1 0
vt 1 1
vn -0.89866656064987183 0 -0.43863242864608765
vn -0.89866656064987183 0 -0.43863242864608765
vn -0.92361146211624146 0 -0.38332998752593994
vn -0.92361146211624146 0 -0.38332998752593994
f 108/108/108 106/106/106 105/105/105 107/107/107
usemtl diffuse_0
v 24.688714981079102 2.625 5.3220558166503906
v 24.688714981079102 0 5.3220558166503906
v 24.83741569519043 2.625 4.5738430023193359
v 24.83741569519043 0 4.5738430023193359
v 24.963542938232422 2.625 3.8215036392211914
v 24.963542938232422 0 3.8215036392211914
vt 0 0
vt 0 1
vt 0.49999547004699707 0
vt 0.49999547004699707 1
vt 1 0
vt 1 1
vn -0.97777646780014038 0 -0.20965014398097992
vn -0.97777646780014038 0 -0.20965014398097992
vn -0.98363703489303589 0 -0.18016165494918823
vn -0.98363703489303589 0 -0.18016165494918823
vn -0.98861515522003174 0 -0.15046624839305878
vn -0.98861515522003174 0 -0.15046624839305878
f 112/112/112 110/110/110 109/109/109 111/111/111
f 114/114/114 112/112/112 111/111/111 113/113/113
