# Rhino

mtllib GLASS2.mtl
usemtl diffuse_Lime
v 21.764865875244141 5.5 -12.566109657287598
v 21.764865875244141 3.5 -12.566109657287598
v 21.241228103637695 5.5 -13.432300567626953
v 21.241228103637695 3.5 -13.432300567626953
vt 0 0
vt 0 1
vt 1 0
vt 1 1
vn -0.86602294445037842 0 0.50000423192977905
vn -0.86602294445037842 0 0.50000423192977905
vn -0.84518682956695557 0 0.53447091579437256
vn -0.84518682956695557 0 0.53447091579437256
f 4/4/4 2/2/2 1/1/1 3/3/3
usemtl diffuse_Lime
v 23.120851516723633 5.5 -9.8510265350341797
v 23.120851516723633 3.5 -9.8510265350341797
v 22.917793273925781 5.5 -10.314614295959473
v 22.917793273925781 3.5 -10.314614295959473
v 22.705440521240234 5.5 -10.774019241333008
v 22.705440521240234 3.5 -10.774019241333008
vt 0 0
vt 0 1
vt 0.5 0
vt 0.5 1
vt 1 0
vt 1 1
vn -0.91997748613357544 0 0.39197120070457458
vn -0.91997748613357544 0 0.39197120070457458
vn -0.91189754009246826 0 0.41041788458824158
vn -0.91189754009246826 0 0.41041788458824158
vn -0.90344780683517456 0 0.42869812250137329
vn -0.90344780683517456 0 0.42869812250137329
f 8/8/8 6/6/6 5/5/5 7/7/7
f 10/10/10 8/8/8 7/7/7 9/9/9
usemtl diffuse_Lime
v 24.139682769775391 5.5 -6.9922938346862793
v 24.139682769775391 3.5 -6.9922938346862793
v 23.838554382324219 5.5 -7.9586291313171387
v 23.838554382324219 3.5 -7.9586291313171387
vt 0 0
vt 0 1
vt 1 0
vt 1 1
vn -0.96051669120788574 0 0.27822235226631165
vn -0.96051669120788574 0 0.27822235226631165
vn -0.94853442907333374 0 0.31667393445968628
vn -0.94853442907333374 0 0.31667393445968628
f 14/14/14 12/12/12 11/11/11 13/13/13
usemtl diffuse_Lime
v 21.764865875244141 11.5 -12.566109657287598
v 21.764865875244141 9.5 -12.566109657287598
v 21.507408142089844 11.5 -13.00184154510498
v 21.507408142089844 9.5 -13.00184154510498
v 21.241228103637695 11.5 -13.432300567626953
v 21.241228103637695 9.5 -13.432300567626953
vt 0 0
vt 0 1
vt 0.5 0
vt 0.5 1
vt 1 0
vt 1 1
vn -0.86602294445037842 0 0.50000423192977905
vn -0.86602294445037842 0 0.50000423192977905
vn -0.85577845573425293 0 0.51734250783920288
vn -0.85577845573425293 0 0.51734250783920288
vn -0.84518682956695557 0 0.53447091579437256
vn -0.84518682956695557 0 0.53447091579437256
f 18/18/18 16/16/16 15/15/15 17/17/17
f 20/20/20 18/18/18 17/17/17 19/19/19
usemtl diffuse_Lime
v 23.120851516723633 11.5 -9.8510265350341797
v 23.120851516723633 9.5 -9.8510265350341797
v 22.705440521240234 11.5 -10.774019241333008
v 22.705440521240234 9.5 -10.774019241333008
vt 0 0
vt 0 1
vt 1 0
vt 1 1
vn -0.91997748613357544 0 0.39197120070457458
vn -0.91997748613357544 0 0.39197120070457458
vn -0.90344780683517456 0 0.42869812250137329
vn -0.90344780683517456 0 0.42869812250137329
f 24/24/24 22/22/22 21/21/21 23/23/23
usemtl diffuse_Lime
v 24.139682769775391 11.5 -6.9922938346862793
v 24.139682769775391 9.5 -6.9922938346862793
v 23.838554382324219 11.5 -7.9586291313171387
v 23.838554382324219 9.5 -7.9586291313171387
vt 0 0
vt 0 1
vt 1 0
vt 1 1
vn -0.96051669120788574 0 0.27822235226631165
vn -0.96051669120788574 0 0.27822235226631165
vn -0.94853442907333374 0 0.31667393445968628
vn -0.94853442907333374 0 0.31667393445968628
f 28/28/28 26/26/26 25/25/25 27/27/27
usemtl diffuse_Lime
v -19.467416763305664 5.5 -15.894533157348633
v -19.467416763305664 3.5 -15.894533157348633
v -20.091636657714844 5.5 -15.097768783569336
v -20.091636657714844 3.5 -15.097768783569336
vt 0 0
vt 0 1
vt 1 0
vt 1 1
vn 0.77460694313049316 0 0.63244295120239258
vn 0.77460694313049316 0 0.63244295120239258
vn 0.79944533109664917 0 0.60073882341384888
vn 0.79944533109664917 0 0.60073882341384888
f 32/32/32 30/30/30 29/29/29 31/31/31
usemtl diffuse_Lime
v -21.241350173950195 5.5 -13.432107925415039
v -21.241350173950195 3.5 -13.432107925415039
v -21.764978408813477 5.5 -12.565913200378418
v -21.764978408813477 3.5 -12.565913200378418
vt 0 0
vt 0 1
vt 1 0
vt 1 1
vn 0.84519171714782715 0 0.53446328639984131
vn 0.84519171714782715 0 0.53446328639984131
vn 0.86602747440338135 0 0.4999963641166687
vn 0.86602747440338135 0 0.4999963641166687
f 36/36/36 34/34/34 33/33/33 35/35/35
usemtl diffuse_Lime
v -22.705537796020508 5.5 -10.77381420135498
v -22.705537796020508 3.5 -10.77381420135498
v -23.120941162109375 5.5 -9.8508176803588867
v -23.120941162109375 3.5 -9.8508176803588867
vt 0 0
vt 0 1
vt 1 0
vt 1 1
vn 0.90345168113708496 0 0.42868992686271667
vn 0.90345168113708496 0 0.42868992686271667
vn 0.91998106241226196 0 0.39196285605430603
vn 0.91998106241226196 0 0.39196285605430603
f 40/40/40 38/38/38 37/37/37 39/39/39
usemtl diffuse_Lime
v -23.838626861572266 5.5 -7.9584131240844727
v -23.838626861572266 3.5 -7.9584131240844727
v -24.139747619628906 5.5 -6.9920749664306641
v -24.139747619628906 3.5 -6.9920749664306641
vt 0 0
vt 0 1
vt 1 0
vt 1 1
vn 0.94853734970092773 0 0.31666535139083862
vn 0.94853734970092773 0 0.31666535139083862
vn 0.96051919460296631 0 0.27821364998817444
vn 0.96051919460296631 0 0.27821364998817444
f 44/44/44 42/42/42 41/41/41 43/43/43
usemtl diffuse_Lime
v -19.467416763305664 8.5 -15.894533157348633
v -19.467416763305664 6.5 -15.894533157348633
v -20.091636657714844 8.5 -15.097768783569336
v -20.091636657714844 6.5 -15.097768783569336
vt 0 0
vt 0 1
vt 1 0
vt 1 1
vn 0.77460694313049316 0 0.63244295120239258
vn 0.77460694313049316 0 0.63244295120239258
vn 0.79944533109664917 0 0.60073882341384888
vn 0.79944533109664917 0 0.60073882341384888
f 48/48/48 46/46/46 45/45/45 47/47/47
usemtl diffuse_Lime
v -22.705537796020508 8.5 -10.77381420135498
v -22.705537796020508 6.5 -10.77381420135498
v -23.120941162109375 8.5 -9.8508176803588867
v -23.120941162109375 6.5 -9.8508176803588867
vt 0 0
vt 0 1
vt 1 0
vt 1 1
vn 0.90345168113708496 0 0.42868992686271667
vn 0.90345168113708496 0 0.42868992686271667
vn 0.91998106241226196 0 0.39196285605430603
vn 0.91998106241226196 0 0.39196285605430603
f 52/52/52 50/50/50 49/49/49 51/51/51
usemtl diffuse_Lime
v -19.467416763305664 11.5 -15.894533157348633
v -19.467416763305664 9.5 -15.894533157348633
v -20.091636657714844 11.5 -15.097768783569336
v -20.091636657714844 9.5 -15.097768783569336
vt 0 0
vt 0 1
vt 1 0
vt 1 1
vn 0.77460694313049316 0 0.63244295120239258
vn 0.77460694313049316 0 0.63244295120239258
vn 0.79944533109664917 0 0.60073882341384888
vn 0.79944533109664917 0 0.60073882341384888
f 56/56/56 54/54/54 53/53/53 55/55/55
usemtl diffuse_Lime
v -22.705537796020508 11.5 -10.77381420135498
v -22.705537796020508 9.5 -10.77381420135498
v -23.120941162109375 11.5 -9.8508176803588867
v -23.120941162109375 9.5 -9.8508176803588867
vt 0 0
vt 0 1
vt 1 0
vt 1 1
vn 0.90345168113708496 0 0.42868992686271667
vn 0.90345168113708496 0 0.42868992686271667
vn 0.91998106241226196 0 0.39196285605430603
vn 0.91998106241226196 0 0.39196285605430603
f 60/60/60 58/58/58 57/57/57 59/59/59
