# Rhino

mtllib GLASS3.mtl
usemtl diffuse_Aqua
v 21.507488250732422 5.5 13.001708030700684
v 21.507488250732422 3.5 13.001708030700684
v 21.764944076538086 5.5 12.565975189208984
v 21.764944076538086 3.5 12.565975189208984
vt 0 0
vt 0 1
vt 1 0
vt 1 1
vn -0.85578161478042603 0 -0.51733726263046265
vn -0.85578161478042603 0 -0.51733726263046265
vn -0.86602580547332764 0 -0.49999931454658508
vn -0.86602580547332764 0 -0.49999931454658508
f 4/4/4 2/2/2 1/1/1 3/3/3
usemtl diffuse_Aqua
v 21.241312026977539 5.5 13.432168960571289
v 21.241312026977539 3.5 13.432168960571289
v 21.507488250732422 5.5 13.001708030700684
v 21.507488250732422 3.5 13.001708030700684
vt 0 0
vt 0 1
vt 1 0
vt 1 1
vn -0.84519046545028687 0 -0.5344652533531189
vn -0.84519046545028687 0 -0.5344652533531189
vn -0.8557816743850708 0 -0.51733708381652832
vn -0.8557816743850708 0 -0.51733708381652832
f 8/8/8 6/6/6 5/5/5 7/7/7
usemtl diffuse_Aqua
v 19.783493041992188 5.5 15.499350547790527
v 19.783493041992188 4.5 15.499350547790527
v 19.783493041992188 3.5 15.499350547790527
v 19.938554763793945 5.5 15.29936408996582
v 19.938554763793945 4.5 15.29936408996582
v 19.938554763793945 3.5 15.29936408996582
v 20.091592788696289 5.5 15.09782600402832
v 20.091592788696289 4.5 15.09782600402832
v 20.091592788696289 3.5 15.09782600402832
vt 0 0
vt 0 0.5
vt 0 1
vt 0.5 0
vt 0.5 0.5
vt 0.5 1
vt 1 0
vt 1 0.5
vt 1 1
vn -0.78718394041061401 0 -0.61671823263168335
vn -0.78718394041061401 0 -0.61671823263168335
vn -0.78718394041061401 0 -0.61671823263168335
vn -0.7933538556098938 0 -0.6087607741355896
vn -0.7933538556098938 0 -0.6087607741355896
vn -0.7933538556098938 0 -0.6087607741355896
vn -0.79944330453872681 0 -0.60074150562286377
vn -0.79944330453872681 0 -0.60074150562286377
vn -0.79944330453872681 0 -0.60074150562286377
f 10/10/10 9/9/9 12/12/12 13/13/13 14/14/14 11/11/11
f 13/13/13 12/12/12 15/15/15 16/16/16 17/17/17 14/14/14
usemtl diffuse_Aqua
v 19.467370986938477 5.5 15.894588470458984
v 19.467370986938477 3.5 15.894588470458984
v 19.783493041992188 5.5 15.499350547790527
v 19.783493041992188 3.5 15.499350547790527
vt 0 0
vt 0 1
vt 1 0
vt 1 1
vn -0.77460545301437378 0 -0.63244473934173584
vn -0.77460545301437378 0 -0.63244473934173584
vn -0.78718405961990356 0 -0.6167181134223938
vn -0.78718405961990356 0 -0.6167181134223938
f 21/21/21 19/19/19 18/18/18 20/20/20
usemtl diffuse_Aqua
v 17.771011352539063 5.5 17.770977020263672
v 17.771011352539063 4.5 17.770977020263672
v 17.771011352539063 3.5 17.770977020263672
v 17.949047088623047 5.5 17.59113883972168
v 17.949047088623047 4.5 17.59113883972168
v 17.949047088623047 3.5 17.59113883972168
v 18.125263214111328 5.5 17.409519195556641
v 18.125263214111328 4.5 17.409519195556641
v 18.125263214111328 3.5 17.409519195556641
vt 0 0
vt 0 0.5
vt 0 1
vt 0.5 0
vt 0.5 0.5
vt 0.5 1
vt 1 0
vt 1 0.5
vt 1 1
vn -0.70710742473602295 0 -0.70710617303848267
vn -0.70710742473602295 0 -0.70710617303848267
vn -0.70710742473602295 0 -0.70710617303848267
vn -0.7141914963722229 0 -0.69995033740997314
vn -0.7141914963722229 0 -0.69995033740997314
vn -0.7141914963722229 0 -0.69995033740997314
vn -0.72120314836502075 0 -0.69272363185882568
vn -0.72120314836502075 0 -0.69272363185882568
vn -0.72120314836502075 0 -0.69272363185882568
f 23/23/23 22/22/22 25/25/25 26/26/26 27/27/27 24/24/24
f 26/26/26 25/25/25 28/28/28 29/29/29 30/30/30 27/27/27
usemtl diffuse_Aqua
v 17.409553527832031 5.5 18.125228881835938
v 17.409553527832031 3.5 18.125228881835938
v 17.771011352539063 5.5 17.770977020263672
v 17.771011352539063 3.5 17.770977020263672
vt 0 0
vt 0 1
vt 1 0
vt 1 1
vn -0.69272500276565552 0 -0.72120183706283569
vn -0.69272500276565552 0 -0.72120183706283569
vn -0.7071075439453125 0 -0.70710605382919312
vn -0.7071075439453125 0 -0.70710605382919312
f 34/34/34 32/32/32 31/31/31 33/33/33
usemtl diffuse_Aqua
v 21.507488250732422 8.5 13.001708030700684
v 21.507488250732422 6.5 13.001708030700684
v 21.764944076538086 8.5 12.565975189208984
v 21.764944076538086 6.5 12.565975189208984
vt 0 0
vt 0 1
vt 1 0
vt 1 1
vn -0.85578161478042603 0 -0.51733726263046265
vn -0.85578161478042603 0 -0.51733726263046265
vn -0.86602580547332764 0 -0.49999931454658508
vn -0.86602580547332764 0 -0.49999931454658508
f 38/38/38 36/36/36 35/35/35 37/37/37
usemtl diffuse_Aqua
v 21.241312026977539 8.5 13.432168960571289
v 21.241312026977539 6.5 13.432168960571289
v 21.507488250732422 8.5 13.001708030700684
v 21.507488250732422 6.5 13.001708030700684
vt 0 0
vt 0 1
vt 1 0
vt 1 1
vn -0.84519046545028687 0 -0.5344652533531189
vn -0.84519046545028687 0 -0.5344652533531189
vn -0.8557816743850708 0 -0.51733708381652832
vn -0.8557816743850708 0 -0.51733708381652832
f 42/42/42 40/40/40 39/39/39 41/41/41
usemtl diffuse_Aqua
v 17.771011352539063 8.5 17.770977020263672
v 17.771011352539063 7.5 17.770977020263672
v 17.771011352539063 6.5 17.770977020263672
v 17.949047088623047 8.5 17.59113883972168
v 17.949047088623047 7.5 17.59113883972168
v 17.949047088623047 6.5 17.59113883972168
v 18.125263214111328 8.5 17.409519195556641
v 18.125263214111328 7.5 17.409519195556641
v 18.125263214111328 6.5 17.409519195556641
vt 0 0
vt 0 0.5
vt 0 1
vt 0.5 0
vt 0.5 0.5
vt 0.5 1
vt 1 0
vt 1 0.5
vt 1 1
vn -0.70710742473602295 0 -0.70710617303848267
vn -0.70710742473602295 0 -0.70710617303848267
vn -0.70710742473602295 0 -0.70710617303848267
vn -0.7141914963722229 0 -0.69995033740997314
vn -0.7141914963722229 0 -0.69995033740997314
vn -0.7141914963722229 0 -0.69995033740997314
vn -0.72120314836502075 0 -0.69272363185882568
vn -0.72120314836502075 0 -0.69272363185882568
vn -0.72120314836502075 0 -0.69272363185882568
f 44/44/44 43/43/43 46/46/46 47/47/47 48/48/48 45/45/45
f 47/47/47 46/46/46 49/49/49 50/50/50 51/51/51 48/48/48
usemtl diffuse_Aqua
v 17.409553527832031 8.5 18.125228881835938
v 17.409553527832031 6.5 18.125228881835938
v 17.771011352539063 8.5 17.770977020263672
v 17.771011352539063 6.5 17.770977020263672
vt 0 0
vt 0 1
vt 1 0
vt 1 1
vn -0.69272500276565552 0 -0.72120183706283569
vn -0.69272500276565552 0 -0.72120183706283569
vn -0.7071075439453125 0 -0.70710605382919312
vn -0.7071075439453125 0 -0.70710605382919312
f 55/55/55 53/53/53 52/52/52 54/54/54
usemtl diffuse_Aqua
v 15.499388694763184 5.5 19.783464431762695
v 15.499388694763184 3.5 19.783464431762695
v 15.894625663757324 5.5 19.467340469360352
v 15.894625663757324 3.5 19.467340469360352
vt 0 0
vt 0 1
vt 1 0
vt 1 1
vn -0.61671966314315796 0 -0.78718286752700806
vn -0.61671966314315796 0 -0.78718286752700806
vn -0.63244622945785522 0 -0.77460426092147827
vn -0.63244622945785522 0 -0.77460426092147827
f 59/59/59 57/57/57 56/56/56 58/58/58
usemtl diffuse_Aqua
v 15.097865104675293 5.5 20.091564178466797
v 15.097865104675293 3.5 20.091564178466797
v 15.499388694763184 5.5 19.783464431762695
v 15.499388694763184 3.5 19.783464431762695
vt 0 0
vt 0 1
vt 1 0
vt 1 1
vn -0.60074305534362793 0 -0.79944217205047607
vn -0.60074305534362793 0 -0.79944217205047607
vn -0.61671978235244751 0 -0.78718274831771851
vn -0.61671978235244751 0 -0.78718274831771851
f 63/63/63 61/61/61 60/60/60 62/62/62
usemtl diffuse_Aqua
v -25.086124420166016 8.5 1.517507791519165
v -25.086124420166016 6.5 1.517507791519165
v -25.050479888916016 8.5 2.0223603248596191
v -25.050479888916016 6.5 2.0223603248596191
vt 0 0
vt 0 1
vt 1 0
vt 1 1
vn 0.99817538261413574 0 -0.060381464660167694
vn 0.99817538261413574 0 -0.060381464660167694
vn 0.99675703048706055 0 -0.080469667911529541
vn 0.99675703048706055 0 -0.080469667911529541
f 67/67/67 65/65/65 64/64/64 66/66/66
usemtl diffuse_Aqua
v -25.111597061157227 8.5 1.0120398998260498
v -25.111597061157227 6.5 1.0120398998260498
v -25.086124420166016 8.5 1.517507791519165
v -25.086124420166016 6.5 1.517507791519165
vt 0 0
vt 0 1
vt 1 0
vt 1 1
vn 0.99918889999389648 0 -0.040268931537866592
vn 0.99918889999389648 0 -0.040268931537866592
vn 0.99817538261413574 0 -0.060381617397069931
vn 0.99817538261413574 0 -0.060381617397069931
f 71/71/71 69/69/69 68/68/68 70/70/70
usemtl diffuse_Aqua
v -25.08613395690918 5.5 -1.5173519849777222
v -25.08613395690918 3.5 -1.5173519849777222
v -25.111602783203125 5.5 -1.0118839740753174
v -25.111602783203125 3.5 -1.0118839740753174
vt 0 0
vt 0 1
vt 1 0
vt 1 1
vn 0.99817574024200439 0 0.06037541851401329
vn 0.99817574024200439 0 0.06037541851401329
vn 0.99918913841247559 0 0.040262725204229355
vn 0.99918913841247559 0 0.040262725204229355
f 75/75/75 73/73/73 72/72/72 74/74/74
usemtl diffuse_Aqua
v -25.050493240356445 5.5 -2.0222046375274658
v -25.050493240356445 3.5 -2.0222046375274658
v -25.08613395690918 5.5 -1.5173519849777222
v -25.08613395690918 3.5 -1.5173519849777222
vt 0 0
vt 0 1
vt 1 0
vt 1 1
vn 0.99675756692886353 0 0.080463476479053497
vn 0.99675756692886353 0 0.080463476479053497
vn 0.99817574024200439 0 0.060375269502401352
vn 0.99817574024200439 0 0.060375269502401352
f 79/79/79 77/77/77 76/76/76 78/78/78
usemtl diffuse_Aqua
v -24.720331192016602 5.5 -4.530085563659668
v -24.720331192016602 3.5 -4.530085563659668
v -24.806541442871094 5.5 -4.0313725471496582
v -24.806541442871094 3.5 -4.0313725471496582
vt 0 0
vt 0 1
vt 1 0
vt 1 1
vn 0.98362046480178833 0 0.18025189638137817
vn 0.98362046480178833 0 0.18025189638137817
vn 0.98705077171325684 0 0.16040800511837006
vn 0.98705077171325684 0 0.16040800511837006
f 83/83/83 81/81/81 80/80/80 82/82/82
usemtl diffuse_Aqua
v -24.62409782409668 5.5 -5.0269608497619629
v -24.62409782409668 4.5 -5.0269608497619629
v -24.62409782409668 3.5 -5.0269608497619629
v -24.673465728759766 5.5 -4.7787656784057617
v -24.673465728759766 4.5 -4.7787656784057617
v -24.673465728759766 3.5 -4.7787656784057617
v -24.720331192016602 5.5 -4.530085563659668
v -24.720331192016602 4.5 -4.530085563659668
v -24.720331192016602 3.5 -4.530085563659668
vt 0 0
vt 0 0.5
vt 0 1
vt 0.5 0
vt 0.5 0.5
vt 0.5 1
vt 1 0
vt 1 0.5
vt 1 1
vn 0.97979128360748291 0 0.20002254843711853
vn 0.97979128360748291 0 0.20002254843711853
vn 0.97979128360748291 0 0.20002254843711853
vn 0.98175567388534546 0 0.1901467889547348
vn 0.98175567388534546 0 0.1901467889547348
vn 0.98175567388534546 0 0.1901467889547348
vn 0.98362052440643311 0 0.18025174736976624
vn 0.98362052440643311 0 0.18025174736976624
vn 0.98362052440643311 0 0.18025174736976624
f 85/85/85 84/84/84 87/87/87 88/88/88 89/89/89 86/86/86
f 88/88/88 87/87/87 90/90/90 91/91/91 92/92/92 89/89/89
usemtl diffuse_Aqua
v -25.08613395690918 8.5 -1.5173519849777222
v -25.08613395690918 6.5 -1.5173519849777222
v -25.111602783203125 8.5 -1.0118839740753174
v -25.111602783203125 6.5 -1.0118839740753174
vt 0 0
vt 0 1
vt 1 0
vt 1 1
vn 0.99817574024200439 0 0.06037541851401329
vn 0.99817574024200439 0 0.06037541851401329
vn 0.99918913841247559 0 0.040262725204229355
vn 0.99918913841247559 0 0.040262725204229355
f 96/96/96 94/94/94 93/93/93 95/95/95
usemtl diffuse_Aqua
v -25.050493240356445 8.5 -2.0222046375274658
v -25.050493240356445 6.5 -2.0222046375274658
v -25.08613395690918 8.5 -1.5173519849777222
v -25.08613395690918 6.5 -1.5173519849777222
vt 0 0
vt 0 1
vt 1 0
vt 1 1
vn 0.99675756692886353 0 0.080463476479053497
vn 0.99675756692886353 0 0.080463476479053497
vn 0.99817574024200439 0 0.060375269502401352
vn 0.99817574024200439 0 0.060375269502401352
f 100/100/100 98/98/98 97/97/97 99/99/99
usemtl diffuse_Aqua
v -24.720331192016602 8.5 -4.530085563659668
v -24.720331192016602 6.5 -4.530085563659668
v -24.806541442871094 8.5 -4.0313725471496582
v -24.806541442871094 6.5 -4.0313725471496582
vt 0 0
vt 0 1
vt 1 0
vt 1 1
vn 0.98362046480178833 0 0.18025189638137817
vn 0.98362046480178833 0 0.18025189638137817
vn 0.98705077171325684 0 0.16040800511837006
vn 0.98705077171325684 0 0.16040800511837006
f 104/104/104 102/102/102 101/101/101 103/103/103
usemtl diffuse_Aqua
v -24.62409782409668 8.5 -5.0269608497619629
v -24.62409782409668 7.5 -5.0269608497619629
v -24.62409782409668 6.5 -5.0269608497619629
v -24.673465728759766 8.5 -4.7787656784057617
v -24.673465728759766 7.5 -4.7787656784057617
v -24.673465728759766 6.5 -4.7787656784057617
v -24.720331192016602 8.5 -4.530085563659668
v -24.720331192016602 7.5 -4.530085563659668
v -24.720331192016602 6.5 -4.530085563659668
vt 0 0
vt 0 0.5
vt 0 1
vt 0.5 0
vt 0.5 0.5
vt 0.5 1
vt 1 0
vt 1 0.5
vt 1 1
vn 0.97979128360748291 0 0.20002254843711853
vn 0.97979128360748291 0 0.20002254843711853
vn 0.97979128360748291 0 0.20002254843711853
vn 0.98175567388534546 0 0.1901467889547348
vn 0.98175567388534546 0 0.1901467889547348
vn 0.98175567388534546 0 0.1901467889547348
vn 0.98362052440643311 0 0.18025174736976624
vn 0.98362052440643311 0 0.18025174736976624
vn 0.98362052440643311 0 0.18025174736976624
f 106/106/106 105/105/105 108/108/108 109/109/109 110/110/110 107/107/107
f 109/109/109 108/108/108 111/111/111 112/112/112 113/113/113 110/110/110
usemtl diffuse_Aqua
v -10.314581871032715 5.5 -22.917806625366211
v -10.314581871032715 3.5 -22.917806625366211
v -10.77398681640625 5.5 -22.705455780029297
v -10.77398681640625 3.5 -22.705455780029297
vt 0 0
vt 0 1
vt 1 0
vt 1 1
vn 0.41041651368141174 0 0.91189819574356079
vn 0.41041651368141174 0 0.91189819574356079
vn 0.42869636416435242 0 0.90344864130020142
vn 0.42869636416435242 0 0.90344864130020142
f 117/117/117 115/115/115 114/114/114 116/116/116
usemtl diffuse_Aqua
v -9.8509941101074219 5.5 -23.120864868164063
v -9.8509941101074219 3.5 -23.120864868164063
v -10.314581871032715 5.5 -22.917806625366211
v -10.314581871032715 3.5 -22.917806625366211
vt 0 0
vt 0 1
vt 1 0
vt 1 1
vn 0.39197036623954773 0 0.91997784376144409
vn 0.39197036623954773 0 0.91997784376144409
vn 0.41041666269302368 0 0.91189813613891602
vn 0.41041666269302368 0 0.91189813613891602
f 121/121/121 119/119/119 118/118/118 120/120/120
usemtl diffuse_Aqua
v -10.314581871032715 8.5 -22.917806625366211
v -10.314581871032715 6.5 -22.917806625366211
v -10.77398681640625 8.5 -22.705455780029297
v -10.77398681640625 6.5 -22.705455780029297
vt 0 0
vt 0 1
vt 1 0
vt 1 1
vn 0.41041651368141174 0 0.91189819574356079
vn 0.41041651368141174 0 0.91189819574356079
vn 0.42869636416435242 0 0.90344864130020142
vn 0.42869636416435242 0 0.90344864130020142
f 125/125/125 123/123/123 122/122/122 124/124/124
usemtl diffuse_Aqua
v -9.8509941101074219 8.5 -23.120864868164063
v -9.8509941101074219 6.5 -23.120864868164063
v -10.314581871032715 8.5 -22.917806625366211
v -10.314581871032715 6.5 -22.917806625366211
vt 0 0
vt 0 1
vt 1 0
vt 1 1
vn 0.39197036623954773 0 0.91997784376144409
vn 0.39197036623954773 0 0.91997784376144409
vn 0.41041666269302368 0 0.91189813613891602
vn 0.41041666269302368 0 0.91189813613891602
f 129/129/129 127/127/127 126/126/126 128/128/128
usemtl diffuse_Aqua
v -7.4769434928894043 5.5 -23.993995666503906
v -7.4769434928894043 3.5 -23.993995666503906
v -7.9585952758789063 5.5 -23.838565826416016
v -7.9585952758789063 3.5 -23.838565826416016
vt 0 0
vt 0 1
vt 1 0
vt 1 1
vn 0.29750704765319824 0 0.95471960306167603
vn 0.29750704765319824 0 0.95471960306167603
vn 0.31667208671569824 0 0.94853508472442627
vn 0.31667208671569824 0 0.94853508472442627
f 133/133/133 131/131/131 130/130/130 132/132/132
usemtl diffuse_Aqua
v -6.9922590255737305 5.5 -24.139694213867188
v -6.9922590255737305 4.5 -24.139694213867188
v -6.9922590255737305 3.5 -24.139694213867188
v -7.2349681854248047 5.5 -24.068063735961914
v -7.2349681854248047 4.5 -24.068063735961914
v -7.2349681854248047 3.5 -24.068063735961914
v -7.4769434928894043 5.5 -23.993995666503906
v -7.4769434928894043 4.5 -23.993995666503906
v -7.4769434928894043 3.5 -23.993995666503906
vt 0 0
vt 0 0.5
vt 0 1
vt 0.5 0
vt 0.5 0.5
vt 0.5 1
vt 1 0
vt 1 0.5
vt 1 1
vn 0.2782214879989624 0 0.96051692962646484
vn 0.2782214879989624 0 0.96051692962646484
vn 0.2782214879989624 0 0.96051692962646484
vn 0.28787893056869507 0 0.95766681432723999
vn 0.28787893056869507 0 0.95766681432723999
vn 0.28787893056869507 0 0.95766681432723999
vn 0.29750719666481018 0 0.95471960306167603
vn 0.29750719666481018 0 0.95471960306167603
vn 0.29750719666481018 0 0.95471960306167603
f 135/135/135 134/134/134 137/137/137 138/138/138 139/139/139 136/136/136
f 138/138/138 137/137/137 140/140/140 141/141/141 142/142/142 139/139/139
usemtl diffuse_Aqua
v -7.4769434928894043 8.5 -23.993995666503906
v -7.4769434928894043 6.5 -23.993995666503906
v -7.9585952758789063 8.5 -23.838565826416016
v -7.9585952758789063 6.5 -23.838565826416016
vt 0 0
vt 0 1
vt 1 0
vt 1 1
vn 0.29750704765319824 0 0.95471960306167603
vn 0.29750704765319824 0 0.95471960306167603
vn 0.31667208671569824 0 0.94853508472442627
vn 0.31667208671569824 0 0.94853508472442627
f 146/146/146 144/144/144 143/143/143 145/145/145
usemtl diffuse_Aqua
v -6.9922590255737305 8.5 -24.139694213867188
v -6.9922590255737305 7.5 -24.139694213867188
v -6.9922590255737305 6.5 -24.139694213867188
v -7.2349681854248047 8.5 -24.068063735961914
v -7.2349681854248047 7.5 -24.068063735961914
v -7.2349681854248047 6.5 -24.068063735961914
v -7.4769434928894043 8.5 -23.993995666503906
v -7.4769434928894043 7.5 -23.993995666503906
v -7.4769434928894043 6.5 -23.993995666503906
vt 0 0
vt 0 0.5
vt 0 1
vt 0.5 0
vt 0.5 0.5
vt 0.5 1
vt 1 0
vt 1 0.5
vt 1 1
vn 0.2782214879989624 0 0.96051692962646484
vn 0.2782214879989624 0 0.96051692962646484
vn 0.2782214879989624 0 0.96051692962646484
vn 0.28787893056869507 0 0.95766681432723999
vn 0.28787893056869507 0 0.95766681432723999
vn 0.28787893056869507 0 0.95766681432723999
vn 0.29750719666481018 0 0.95471960306167603
vn 0.29750719666481018 0 0.95471960306167603
vn 0.29750719666481018 0 0.95471960306167603
f 148/148/148 147/147/147 150/150/150 151/151/151 152/152/152 149/149/149
f 151/151/151 150/150/150 153/153/153 154/154/154 155/155/155 152/152/152
usemtl diffuse_Aqua
v -4.5302739143371582 5.5 -24.720296859741211
v -4.5302739143371582 4.5 -24.720296859741211
v -4.5302739143371582 3.5 -24.720296859741211
v -4.778954029083252 5.5 -24.673429489135742
v -4.778954029083252 4.5 -24.673429489135742
v -4.778954029083252 3.5 -24.673429489135742
v -5.0271492004394531 5.5 -24.624057769775391
v -5.0271492004394531 4.5 -24.624057769775391
v -5.0271492004394531 3.5 -24.624057769775391
vt 0 0
vt 0 0.5
vt 0 1
vt 0.5 0
vt 0.5 0.5
vt 0.5 1
vt 1 0
vt 1 0.5
vt 1 1
vn 0.18025925755500793 0 0.98361915349960327
vn 0.18025925755500793 0 0.98361915349960327
vn 0.18025925755500793 0 0.98361915349960327
vn 0.19015428423881531 0 0.98175424337387085
vn 0.19015428423881531 0 0.98175424337387085
vn 0.19015428423881531 0 0.98175424337387085
vn 0.20003002882003784 0 0.97978979349136353
vn 0.20003002882003784 0 0.97978979349136353
vn 0.20003002882003784 0 0.97978979349136353
f 157/157/157 156/156/156 159/159/159 160/160/160 161/161/161 158/158/158
f 160/160/160 159/159/159 162/162/162 163/163/163 164/164/164 161/161/161
usemtl diffuse_Aqua
v -4.0315618515014648 5.5 -24.806510925292969
v -4.0315618515014648 4.5 -24.806510925292969
v -4.0315618515014648 3.5 -24.806510925292969
v -4.281135082244873 5.5 -24.764659881591797
v -4.281135082244873 4.5 -24.764659881591797
v -4.281135082244873 3.5 -24.764659881591797
v -4.5302739143371582 5.5 -24.720296859741211
v -4.5302739143371582 4.5 -24.720296859741211
v -4.5302739143371582 3.5 -24.720296859741211
vt 0 0
vt 0 0.5
vt 0 1
vt 0.5 0
vt 0.5 0.5
vt 0.5 1
vt 1 0
vt 1 0.5
vt 1 1
vn 0.16041553020477295 0 0.98704957962036133
vn 0.16041553020477295 0 0.98704957962036133
vn 0.16041553020477295 0 0.98704957962036133
vn 0.17034611105918884 0 0.98538428544998169
vn 0.17034611105918884 0 0.98538428544998169
vn 0.17034611105918884 0 0.98538428544998169
vn 0.18025940656661987 0 0.9836190938949585
vn 0.18025940656661987 0 0.9836190938949585
vn 0.18025940656661987 0 0.9836190938949585
f 166/166/166 165/165/165 168/168/168 169/169/169 170/170/170 167/167/167
f 169/169/169 168/168/168 171/171/171 172/172/172 173/173/173 170/170/170
usemtl diffuse_Aqua
v -4.5302739143371582 8.5 -24.720296859741211
v -4.5302739143371582 7.5 -24.720296859741211
v -4.5302739143371582 6.5 -24.720296859741211
v -4.778954029083252 8.5 -24.673429489135742
v -4.778954029083252 7.5 -24.673429489135742
v -4.778954029083252 6.5 -24.673429489135742
v -5.0271492004394531 8.5 -24.624057769775391
v -5.0271492004394531 7.5 -24.624057769775391
v -5.0271492004394531 6.5 -24.624057769775391
vt 0 0
vt 0 0.5
vt 0 1
vt 0.5 0
vt 0.5 0.5
vt 0.5 1
vt 1 0
vt 1 0.5
vt 1 1
vn 0.18025925755500793 0 0.98361915349960327
vn 0.18025925755500793 0 0.98361915349960327
vn 0.18025925755500793 0 0.98361915349960327
vn 0.19015428423881531 0 0.98175424337387085
vn 0.19015428423881531 0 0.98175424337387085
vn 0.19015428423881531 0 0.98175424337387085
vn 0.20003002882003784 0 0.97978979349136353
vn 0.20003002882003784 0 0.97978979349136353
vn 0.20003002882003784 0 0.97978979349136353
f 175/175/175 174/174/174 177/177/177 178/178/178 179/179/179 176/176/176
f 178/178/178 177/177/177 180/180/180 181/181/181 182/182/182 179/179/179
usemtl diffuse_Aqua
v -4.0315618515014648 8.5 -24.806510925292969
v -4.0315618515014648 7.5 -24.806510925292969
v -4.0315618515014648 6.5 -24.806510925292969
v -4.281135082244873 8.5 -24.764659881591797
v -4.281135082244873 7.5 -24.764659881591797
v -4.281135082244873 6.5 -24.764659881591797
v -4.5302739143371582 8.5 -24.720296859741211
v -4.5302739143371582 7.5 -24.720296859741211
v -4.5302739143371582 6.5 -24.720296859741211
vt 0 0
vt 0 0.5
vt 0 1
vt 0.5 0
vt 0.5 0.5
vt 0.5 1
vt 1 0
vt 1 0.5
vt 1 1
vn 0.16041553020477295 0 0.98704957962036133
vn 0.16041553020477295 0 0.98704957962036133
vn 0.16041553020477295 0 0.98704957962036133
vn 0.17034611105918884 0 0.98538428544998169
vn 0.17034611105918884 0 0.98538428544998169
vn 0.17034611105918884 0 0.98538428544998169
vn 0.18025940656661987 0 0.9836190938949585
vn 0.18025940656661987 0 0.9836190938949585
vn 0.18025940656661987 0 0.9836190938949585
f 184/184/184 183/183/183 186/186/186 187/187/187 188/188/188 185/185/185
f 187/187/187 186/186/186 189/189/189 190/190/190 191/191/191 188/188/188
usemtl diffuse_Aqua
v -1.5175434350967407 8.5 -25.086122512817383
v -1.5175434350967407 6.5 -25.086122512817383
v -2.0223958492279053 8.5 -25.050477981567383
v -2.0223958492279053 6.5 -25.050477981567383
vt 0 0
vt 0 1
vt 1 0
vt 1 1
vn 0.060382887721061707 0 0.99817526340484619
vn 0.060382887721061707 0 0.99817526340484619
vn 0.080471083521842957 0 0.99675697088241577
vn 0.080471083521842957 0 0.99675697088241577
f 195/195/195 193/193/193 192/192/192 194/194/194
usemtl diffuse_Aqua
v -1.012075662612915 8.5 -25.111595153808594
v -1.012075662612915 7.5 -25.111595153808594
v -1.012075662612915 6.5 -25.111595153808594
v -1.264873743057251 8.5 -25.100131988525391
v -1.264873743057251 7.5 -25.100131988525391
v -1.264873743057251 6.5 -25.100131988525391
v -1.5175434350967407 8.5 -25.086122512817383
v -1.5175434350967407 7.5 -25.086122512817383
v -1.5175434350967407 6.5 -25.086122512817383
vt 0 0
vt 0 0.5
vt 0 1
vt 0.5 0
vt 0.5 0.5
vt 0.5 1
vt 1 0
vt 1 0.5
vt 1 1
vn 0.040270350873470306 0 0.99918884038925171
vn 0.040270350873470306 0 0.99918884038925171
vn 0.040270350873470306 0 0.99918884038925171
vn 0.050329245626926422 0 0.99873268604278564
vn 0.050329245626926422 0 0.99873268604278564
vn 0.050329245626926422 0 0.99873268604278564
vn 0.060383036732673645 0 0.99817526340484619
vn 0.060383036732673645 0 0.99817526340484619
vn 0.060383036732673645 0 0.99817526340484619
f 197/197/197 196/196/196 199/199/199 200/200/200 201/201/201 198/198/198
f 200/200/200 199/199/199 202/202/202 203/203/203 204/204/204 201/201/201
