# Rhino

mtllib GROUND5.mtl
usemtl diffuse_0
v 31 0 0
v 27.449136734008789 0 -14.406418800354004
v 17.610006332397461 0 -25.512500762939453
v 3.7366371154785156 0 -30.773975372314453
v -10.992751121520996 0 -28.985504150390625
v -23.203832626342773 0 -20.556802749633789
v -30.09919548034668 0 -7.418785572052002
v -30.09919548034668 0 7.418785572052002
v -23.203832626342773 0 20.556802749633789
v -10.992751121520996 0 28.985504150390625
v 3.7366371154785156 0 30.773975372314453
v 17.610006332397461 0 25.512500762939453
v 27.449136734008789 0 14.406418800354004
vt 0.98995453119277954 0.5
vt 0.93242192268371582 0.73406821489334106
vt 0.77300429344177246 0.91451418399810791
vt 0.54822218418121338 1
vt 0.3095705509185791 0.97094184160232544
vt 0.11172153055667877 0.83399653434753418
vt 0 0.6205366849899292
vt 0 0.3794633150100708
vt 0.11172153055667877 0.16600346565246582
vt 0.3095705509185791 0.029058182612061501
vt 0.54822218418121338 0
vt 0.77300429344177246 0.085485793650150299
vt 0.93242192268371582 0.26593178510665894
vn 0 1 0
vn 0 1 0
vn 0 1 0
vn 0 1 0
vn 0 1 0
vn 0 1 0
vn 0 1 0
vn 0 1 0
vn 0 1 0
vn 0 1 0
vn 0 1 0
vn 0 1 0
vn 0 1 0
f 8/8/8 9/9/9 10/10/10 11/11/11 12/12/12 13/13/13 1/1/1 2/2/2 3/3/3 4/4/4 5/5/5 6/6/6 7/7/7
